<svg width="33" height="31" viewBox="0 0 33 31" fill="none" xmlns="http://www.w3.org/2000/svg">
<path d="M24.3672 8.01838C24.4921 7.76833 24.8488 7.76815 24.974 8.01806L31.7543 21.5612C31.8672 21.7867 31.7032 22.0522 31.451 22.0522H17.9078C17.6558 22.0522 17.4918 21.787 17.6044 21.5615L24.3672 8.01838Z" stroke="#171717" stroke-width="1.27188"/>
<path d="M15.4718 30.2616C13.2554 30.2616 11.1954 29.8922 9.29159 29.1534C7.41623 28.3862 5.78238 27.3207 4.39006 25.9568C2.99775 24.5929 1.91799 23.0017 1.15079 21.1831C0.383598 19.3362 0 17.3187 0 15.1308C0 12.9429 0.383598 10.9396 1.15079 9.12111C1.91799 7.27415 2.99775 5.66872 4.39006 4.30482C5.8108 2.94092 7.45885 1.88958 9.33422 1.15079C11.2096 0.383598 13.2554 0 15.4718 0C17.5745 0 19.5351 0.340976 21.3536 1.02293C23.2006 1.70488 24.7776 2.74202 26.0847 4.13433L24.7208 5.54086C23.4421 4.29061 22.0214 3.39555 20.4586 2.85567C18.9242 2.28738 17.2903 2.00323 15.557 2.00323C13.6532 2.00323 11.8773 2.33 10.2293 2.98354C8.60964 3.63708 7.18891 4.56055 5.96708 5.75397C4.77366 6.94739 3.83598 8.3397 3.15403 9.93092C2.50049 11.5221 2.17372 13.2554 2.17372 15.1308C2.17372 17.0062 2.50049 18.7395 3.15403 20.3307C3.83598 21.9219 4.77366 23.3142 5.96708 24.5076C7.18891 25.7011 8.60964 26.6245 10.2293 27.2781C11.8773 27.9316 13.6532 28.2584 15.557 28.2584C17.2903 28.2584 18.9242 27.9884 20.4586 27.4486C22.0214 26.8803 23.4421 25.9568 24.7208 24.6781L26.0847 26.0847C24.7776 27.477 23.2006 28.5283 21.3536 29.2387C19.5351 29.9206 17.5745 30.2616 15.4718 30.2616Z" fill="#171717"/>
</svg>
